<?xml version="1.0" encoding="UTF-8"?>
<svg version="1.1" xmlns="http://www.w3.org/2000/svg" width="198" height="206">
<path d="M0 0 C0.88816406 0.84433594 1.77632813 1.68867187 2.69140625 2.55859375 C3.64660156 3.45707031 4.60179688 4.35554688 5.5859375 5.28125 C7.8637903 7.59912364 9.87269202 9.94740668 11.87890625 12.49609375 C15.48274938 16.75907208 18.87360329 17.35849291 24.25390625 17.99609375 C26.02777614 18.29086919 27.79877496 18.60346261 29.56640625 18.93359375 C30.36691406 19.06636719 31.16742188 19.19914062 31.9921875 19.3359375 C34.58095764 20.09155435 36.12137498 21.38434907 38.25390625 22.99609375 C41.70332244 22.26990087 43.72365254 20.62474907 46.25390625 18.30859375 C49.25390625 15.99609375 49.25390625 15.99609375 51.81640625 15.87109375 C54.96875859 17.3260256 56.81097152 19.55315902 59.25390625 21.99609375 C60.91005282 22.37828142 62.57847649 22.71004477 64.25390625 22.99609375 C65.07890625 23.71796875 65.90390625 24.43984375 66.75390625 25.18359375 C72.26751 28.03885284 77.37971579 26.35288273 83.25390625 24.99609375 C84.24390625 24.66609375 85.23390625 24.33609375 86.25390625 23.99609375 C87.25390625 24.99609375 87.25390625 24.99609375 87.38671875 28.9921875 C87.090386 53.19110219 78.1218082 74.99666215 61.1953125 92.24609375 C44.36578454 108.49295234 20.5878427 117.17634458 -2.64892578 117.05126953 C-27.89395812 116.38708125 -49.36944271 107.16703265 -66.93359375 88.74609375 C-74.17906378 80.48029646 -79.34232705 71.31593704 -83.87109375 61.37109375 C-84.19102295 60.68378174 -84.51095215 59.99646973 -84.84057617 59.28833008 C-85.69140625 57.33203125 -85.69140625 57.33203125 -86.74609375 53.99609375 C-84.7317364 50.97455772 -84.04443455 50.40276713 -80.93359375 48.93359375 C-80.22460938 48.59070313 -79.515625 48.2478125 -78.78515625 47.89453125 C-76.74609375 46.99609375 -76.74609375 46.99609375 -73.80859375 46.05859375 C-73.12796875 45.70796875 -72.44734375 45.35734375 -71.74609375 44.99609375 C-71.35437622 43.34217529 -71.0255183 41.67264104 -70.74609375 39.99609375 C-69.43721917 38.63874233 -68.09756513 37.31103887 -66.74609375 35.99609375 C-65.83368173 34.56905909 -64.93974039 33.13014282 -64.05859375 31.68359375 C-61.25791188 27.35073223 -58.07842762 24.57433097 -53.89453125 21.6015625 C-51.65160322 20.03693394 -51.65160322 20.03693394 -49.79296875 17.8046875 C-47.74609375 15.99609375 -47.74609375 15.99609375 -45.30078125 15.67578125 C-43.97433594 15.77246094 -43.97433594 15.77246094 -42.62109375 15.87109375 C-33.07886601 16.23903882 -33.07886601 16.23903882 -24.73828125 12.3046875 C-21.54991361 8.60993206 -18.84617332 4.58177341 -16.0625 0.578125 C-13.74609375 -2.00390625 -13.74609375 -2.00390625 -11.3359375 -2.9296875 C-6.71959983 -3.06198074 -3.80512079 -2.77670977 0 0 Z " fill="#12100F" transform="translate(102.74609375,75.00390625)"/>
<path d="M0 0 C1.01466753 0.98511411 2.01670964 1.98356502 3 3 C4.8144741 3.87363568 6.65100744 4.70201374 8.5 5.5 C17.02955504 9.63522778 24.65518181 16.45519089 29 25 C28.6875 27.3125 28.6875 27.3125 28 29 C24.535 29.495 24.535 29.495 21 30 C20.84144531 30.680625 20.68289062 31.36125 20.51953125 32.0625 C18.40635001 40.84212595 15.75879753 49.40738161 13 58 C12.67 58 12.34 58 12 58 C12.38615684 50.92045794 14.16949719 44.58289649 16.2722168 37.85375977 C17.21974579 34.797538 18 32.22062154 18 29 C14.37 27.02 10.74 25.04 7 23 C6.88785156 24.69640625 6.77570313 26.3928125 6.66015625 28.140625 C6.07844926 35.12110883 4.82261936 41.89036129 3.4375 48.75 C3.20353516 49.9359375 2.96957031 51.121875 2.72851562 52.34375 C2.15817357 55.23037916 1.58192814 58.1156884 1 61 C0.67 61 0.34 61 0 61 C-0.10358127 55.65520645 0.21158117 50.73051299 1.09375 45.4375 C1.20473022 44.76074219 1.31571045 44.08398438 1.43005371 43.38671875 C1.78073075 41.25677172 2.14019197 39.12842146 2.5 37 C2.74147185 35.54306582 2.98236238 34.08603518 3.22265625 32.62890625 C3.80839953 29.0847991 4.40202192 25.54206589 5 22 C2.69 20.68 0.38 19.36 -2 18 C-3.53639417 28.31345447 -4.82108931 38.64063585 -6 49 C-6.66 49 -7.32 49 -8 49 C-7.6913407 44.8122077 -7.37738709 40.62482826 -7.0625 36.4375 C-6.97548828 35.25607422 -6.88847656 34.07464844 -6.79882812 32.85742188 C-6.3710939 27.20182491 -5.91266535 21.59932526 -5 16 C-7.62449131 15.37280138 -10.24956119 14.74821022 -12.875 14.125 C-13.60203125 13.95097656 -14.3290625 13.77695312 -15.078125 13.59765625 C-20.69443365 12.26747789 -26.33453382 11.10108328 -32 10 C-31.91959473 10.55236328 -31.83918945 11.10472656 -31.75634766 11.67382812 C-30.38950598 21.08768207 -29.02590406 30.50243292 -27.8125 39.9375 C-27.65394531 41.16339844 -27.49539062 42.38929687 -27.33203125 43.65234375 C-27.02024434 46.79588939 -26.93735811 49.84381228 -27 53 C-29.30224854 50.69775146 -29.35680756 49.95590904 -29.77783203 46.82568359 C-29.89780548 45.96494232 -30.01777893 45.10420105 -30.14138794 44.21737671 C-30.26230804 43.28712677 -30.38322815 42.35687683 -30.5078125 41.3984375 C-30.70333206 39.97103745 -30.70333206 39.97103745 -30.90280151 38.51480103 C-31.31811886 35.46921334 -31.72168035 32.42219742 -32.125 29.375 C-32.40417625 27.31239541 -32.68411448 25.24989379 -32.96484375 23.1875 C-33.65208322 18.12615347 -34.32878223 13.06349513 -35 8 C-41.74570361 10.68146583 -48.13364664 13.390056 -54.25 17.3125 C-55.34828125 18.00988281 -56.4465625 18.70726563 -57.578125 19.42578125 C-58.37734375 19.94527344 -59.1765625 20.46476562 -60 21 C-58.8933309 26.50730622 -57.50535767 31.70880872 -55.48828125 36.95703125 C-55 39 -55 39 -56 43 C-58.31 36.73 -60.62 30.46 -63 24 C-65.31 25.98 -67.62 27.96 -70 30 C-70.66 30 -71.32 30 -72 30 C-72.23589844 30.55816406 -72.47179687 31.11632813 -72.71484375 31.69140625 C-74.30570897 34.5491611 -76.29606605 36.57884808 -78.5625 38.9375 C-92.64676799 53.88240646 -92.64676799 53.88240646 -100 72 C-101.31271084 73.35364169 -102.65033723 74.68319859 -104 76 C-106.00667525 78.52529908 -107.95657938 81.08772423 -109.90234375 83.66015625 C-113.0607007 87.18316521 -115.93263377 88.73315844 -120.5 89.875 C-124.55428081 90.01979574 -126.0130788 89.73089938 -129 87 C-134.34713074 76.06268712 -129.36049909 61.0658859 -126 50 C-121.845171 38.00993983 -115.87716953 27.45365399 -107.11328125 18.25390625 C-104.95210677 16.02874434 -104.95210677 16.02874434 -103.10546875 13.4921875 C-94.52914489 3.34062048 -80.11586756 -2.86713787 -67.75 -6.8125 C-67.1005542 -7.0197168 -66.4511084 -7.22693359 -65.78198242 -7.44042969 C-44.06353695 -13.98216336 -19.78600789 -10.41368836 0 0 Z " fill="#A2120C" transform="translate(143,27)"/>
<path d="M0 0 C10.7433739 0.38369192 21.6530754 4.80884005 31 10 C31.495 10.99 31.495 10.99 32 12 C33.7736026 12.85121061 35.56979013 13.65555177 37.375 14.4375 C45.95915108 18.60137735 53.62244443 25.39080739 58 34 C57.6875 36.3125 57.6875 36.3125 57 38 C53.535 38.495 53.535 38.495 50 39 C49.76216797 40.0209375 49.76216797 40.0209375 49.51953125 41.0625 C47.40635001 49.84212595 44.75879753 58.40738161 42 67 C41.67 67 41.34 67 41 67 C41.38615684 59.92045794 43.16949719 53.58289649 45.2722168 46.85375977 C46.21974579 43.797538 47 41.22062154 47 38 C43.37 36.02 39.74 34.04 36 32 C35.88785156 33.69640625 35.77570313 35.3928125 35.66015625 37.140625 C35.07844926 44.12110883 33.82261936 50.89036129 32.4375 57.75 C32.08655273 59.52890625 32.08655273 59.52890625 31.72851562 61.34375 C31.15817357 64.23037916 30.58192814 67.1156884 30 70 C29.67 70 29.34 70 29 70 C28.89641873 64.65520645 29.21158117 59.73051299 30.09375 54.4375 C30.20473022 53.76074219 30.31571045 53.08398438 30.43005371 52.38671875 C30.78073075 50.25677172 31.14019197 48.12842146 31.5 46 C31.74147185 44.54306582 31.98236238 43.08603518 32.22265625 41.62890625 C32.80839953 38.0847991 33.40202192 34.54206589 34 31 C31.69 29.68 29.38 28.36 27 27 C25.46360583 37.31345447 24.17891069 47.64063585 23 58 C22.34 58 21.68 58 21 58 C21.3086593 53.8122077 21.62261291 49.62482826 21.9375 45.4375 C22.02451172 44.25607422 22.11152344 43.07464844 22.20117188 41.85742188 C22.6289061 36.20182491 23.08733465 30.59932526 24 25 C21.37550869 24.37280138 18.75043881 23.74821022 16.125 23.125 C15.39796875 22.95097656 14.6709375 22.77695312 13.921875 22.59765625 C8.30556635 21.26747789 2.66546618 20.10108328 -3 19 C-2.91959473 19.55236328 -2.83918945 20.10472656 -2.75634766 20.67382812 C-1.38950598 30.08768207 -0.02590406 39.50243292 1.1875 48.9375 C1.34605469 50.16339844 1.50460938 51.38929687 1.66796875 52.65234375 C1.97975566 55.79588939 2.06264189 58.84381228 2 62 C-0.30224854 59.69775146 -0.35680756 58.95590904 -0.77783203 55.82568359 C-0.89780548 54.96494232 -1.01777893 54.10420105 -1.14138794 53.21737671 C-1.26230804 52.28712677 -1.38322815 51.35687683 -1.5078125 50.3984375 C-1.63815887 49.44683746 -1.76850525 48.49523743 -1.90280151 47.51480103 C-2.31811886 44.46921334 -2.72168035 41.42219742 -3.125 38.375 C-3.40417625 36.31239541 -3.68411448 34.24989379 -3.96484375 32.1875 C-4.65208322 27.12615347 -5.32878223 22.06349513 -6 17 C-7.65 17.33 -9.3 17.66 -11 18 C-10.34 17.67 -9.68 17.34 -9 17 C-9 16.34 -9 15.68 -9 15 C-7.3603125 15.061875 -7.3603125 15.061875 -5.6875 15.125 C-1.91107771 15.32074666 -1.91107771 15.32074666 1 13 C1.99 13 2.98 13 4 13 C4 12.34 4 11.68 4 11 C7.47325181 9.8422494 10.36067448 9.93133348 14 10 C13.67 8.68 13.34 7.36 13 6 C10.525 5.505 10.525 5.505 8 5 C8 4.34 8 3.68 8 3 C6.8553125 3.0928125 6.8553125 3.0928125 5.6875 3.1875 C2.51219194 2.96596688 2.04264341 2.28224968 0 0 Z " fill="#A53A35" transform="translate(114,18)"/>
<path d="M0 0 C3.89728857 1.71100474 4.71245891 4.35639778 6.5625 8.125 C6.2325 6.475 5.9025 4.825 5.5625 3.125 C9.04668061 3.51213118 10.62473358 5.00765041 12.98046875 7.484375 C24.10429352 19.02019328 36.37111864 27.1032643 51.5625 32.125 C50.2890625 33.609375 50.2890625 33.609375 48.5625 35.125 C44.9375 35.375 44.9375 35.375 41.5625 35.125 C41.2325 34.795 40.9025 34.465 40.5625 34.125 C39.05428067 34.11089922 37.54536668 34.1610018 36.0390625 34.23828125 C16.50008815 34.96325829 16.50008815 34.96325829 7.5625 28.125 C5.90021096 27.01425387 4.23369404 25.90980228 2.5625 24.8125 C1.86125 24.32136719 1.16 23.83023438 0.4375 23.32421875 C-3.4829076 20.81679139 -6.89326229 20.83182337 -11.4375 21.125 C-14.50240883 21.96309908 -17.46919593 22.9942175 -20.4375 24.125 C-18.18669391 21.06390371 -15.94777719 18.70977375 -12.9375 16.4375 C-9.15514417 13.33402855 -7.85200689 9.97803768 -6.359375 5.39453125 C-4.98390772 2.0083173 -3.75089895 0.19235379 0 0 Z " fill="#CCBFB5" transform="translate(92.4375,76.875)"/>
<path d="M0 0 C1.32 0.33 2.64 0.66 4 1 C4 6.61 4 12.22 4 18 C6.3821875 17.8453125 6.3821875 17.8453125 8.8125 17.6875 C9.70582031 17.62949219 10.59914063 17.57148438 11.51953125 17.51171875 C14.36885281 16.92390596 15.34452743 16.37193939 17 14 C17.39796155 12.05061295 17.39796155 12.05061295 17.25 10 C17.23453125 9.319375 17.2190625 8.63875 17.203125 7.9375 C17.04772119 5.78385108 17.04772119 5.78385108 16 3 C16.33 2.34 16.66 1.68 17 1 C19.86724686 1.57344937 20.8614515 1.8614515 23 4 C22.66621509 9.00677362 21.76961889 13.28101628 20 18 C20.66 18 21.32 18 22 18 C22.495 16.515 22.495 16.515 23 15 C25.64 15 28.28 15 31 15 C31 16.32 31 17.64 31 19 C32.11375 19 33.2275 19 34.375 19 C36.25 19 38.125 19 40 19 C44.07189261 17.82367547 47.44323275 16.30143763 51 14 C51.6875 16.8125 51.6875 16.8125 52 20 C51.5359375 20.45375 51.071875 20.9075 50.59375 21.375 C48.48414929 23.52596543 48.3090937 25.24613732 47.8125 28.1875 C47.57466797 29.53908203 47.57466797 29.53908203 47.33203125 30.91796875 C47.22246094 31.60503906 47.11289063 32.29210937 47 33 C46.67 32.01 46.34 31.02 46 30 C45.34 30 44.68 30 44 30 C43.5875 29.195625 43.175 28.39125 42.75 27.5625 C41.19196489 24.67500908 41.19196489 24.67500908 37.8125 24.1875 C36.4203125 24.0946875 36.4203125 24.0946875 35 24 C35.33 24.33 35.66 24.66 36 25 C36.14115161 27.67058851 36.04247107 30.32432238 36 33 C35.01 33 34.02 33 33 33 C33 30.03 33 27.06 33 24 C32.34 24 31.68 24 31 24 C31.11458693 25.43836751 31.24209116 26.87570966 31.375 28.3125 C31.47941406 29.51326172 31.47941406 29.51326172 31.5859375 30.73828125 C31.89564426 33.27224441 31.89564426 33.27224441 34 36 C32.125 36.625 32.125 36.625 30 37 C29.34 36.34 28.68 35.68 28 35 C28 33.68 28 32.36 28 31 C26.35 31 24.7 31 23 31 C22.505 27.04 22.505 27.04 22 23 C21.34 23 20.68 23 20 23 C20.33 23.66 20.66 24.32 21 25 C21.13415472 27.6723621 21.04318541 30.32250488 21 33 C22.65 33 24.3 33 26 33 C26.33 33.66 26.66 34.32 27 35 C26.690625 35.7425 26.38125 36.485 26.0625 37.25 C24.86721215 40.34368621 24.84709019 42.71243908 25 46 C26.32 46 27.64 46 29 46 C29 46.99 29 47.98 29 49 C28.34 49 27.68 49 27 49 C27.33 49.99 27.66 50.98 28 52 C22.06 52.495 22.06 52.495 16 53 C16.66 51.35 17.32 49.7 18 48 C17.67 47.34 17.34 46.68 17 46 C18.32 46 19.64 46 21 46 C21.26932521 41.34947128 21.26932521 41.34947128 20 37 C18.515 36.505 18.515 36.505 17 36 C15.7922442 32.37673261 16.45688872 31.35853631 18 28 C17.01 27.67 16.02 27.34 15 27 C15.66 26.67 16.32 26.34 17 26 C15.35 26 13.7 26 12 26 C11.3121764 28.35367713 11.3121764 28.35367713 11 31 C11.66 31.99 12.32 32.98 13 34 C12.67 34.66 12.34 35.32 12 36 C10.35 36 8.7 36 7 36 C6.67 35.34 6.34 34.68 6 34 C6.99 34 7.98 34 9 34 C9 32.68 9 31.36 9 30 C8.01 30.33 7.02 30.66 6 31 C5.71125 30.195625 5.4225 29.39125 5.125 28.5625 C4.26737432 25.8673532 4.26737432 25.8673532 2 25 C1.34 26.98 0.68 28.96 0 31 C-0.33 30.34 -0.66 29.68 -1 29 C-2.65 29.66 -4.3 30.32 -6 31 C-6 29.35 -6 27.7 -6 26 C-7.32 25.34 -8.64 24.68 -10 24 C-9.375 21.625 -9.375 21.625 -8 19 C-5 17.8125 -5 17.8125 -2 17 C0.77042109 14.22957891 0.39796106 12.23466195 0.625 8.375 C0.69976562 7.18648437 0.77453125 5.99796875 0.8515625 4.7734375 C0.90054688 3.85820313 0.94953125 2.94296875 1 2 C0.34 1.67 -0.32 1.34 -1 1 C-0.67 0.67 -0.34 0.34 0 0 Z " fill="#0D0B0A" transform="translate(82,121)"/>
<path d="M0 0 C4.65797186 3.04303033 8.4445553 6.39534765 12.04003906 10.61474609 C17.65919044 17.26127614 17.65919044 17.26127614 25.734375 19.85546875 C26.85585937 19.92701172 26.85585937 19.92701172 28 20 C29.77526583 20.28624848 31.54640313 20.5992563 33.3125 20.9375 C34.11300781 21.07027344 34.91351563 21.20304687 35.73828125 21.33984375 C38.32705139 22.0954606 39.86746873 23.38825532 42 25 C45.44941619 24.27380712 47.46974629 22.62865532 50 20.3125 C53 18 53 18 55.5625 17.875 C58.71485234 19.32993185 60.55706527 21.55706527 63 24 C65.67790896 24.87238858 65.67790896 24.87238858 68 25 C68 25.99 68 26.98 68 28 C67.505 27.01 67.505 27.01 67 26 C66.401875 26.185625 65.80375 26.37125 65.1875 26.5625 C63 27 63 27 60 26 C60.495 27.485 60.495 27.485 61 29 C60.071875 28.67 59.14375 28.34 58.1875 28 C54.4873001 26.83915297 52.88972478 26.57632153 49.375 28.25 C46.85809563 29.7697896 46.85809563 29.7697896 46.1875 32.1875 C46.0946875 33.0846875 46.0946875 33.0846875 46 34 C45.01 33.67 44.02 33.34 43 33 C43 32.67 43 32.34 43 32 C42.1234375 32.37511719 41.246875 32.75023437 40.34375 33.13671875 C35.2739096 34.44563782 32.80469209 32.52001959 28.359375 30.109375 C22.18295711 26.23115912 16.57867133 21.68363176 11 17 C10.13246094 16.27554688 9.26492187 15.55109375 8.37109375 14.8046875 C3.18505859 10.37011719 3.18505859 10.37011719 2 8 C1.01 7.67 0.02 7.34 -1 7 C-0.34 9.31 0.32 11.62 1 14 C-1.81832513 12.59083743 -2.02593461 10.92219617 -3 8 C-3 7.01 -3 6.02 -3 5 C-1.68 5.33 -0.36 5.66 1 6 C0.67 4.02 0.34 2.04 0 0 Z " fill="#1E1918" transform="translate(99,73)"/>
<path d="M0 0 C0.66 0 1.32 0 2 0 C2.10832169 2.08218362 2.18573541 4.16599129 2.25 6.25 C2.29640625 7.41015625 2.3428125 8.5703125 2.390625 9.765625 C2 13 2 13 0.11328125 15.35546875 C-1.87308249 16.90123425 -3.74579756 17.90925689 -6 19 C-7.70921589 20.5412312 -7.70921589 20.5412312 -9 22 C-7.68 22.33 -6.36 22.66 -5 23 C-4.33333333 25.66666667 -3.66666667 28.33333333 -3 31 C-4.32 30.34 -5.64 29.68 -7 29 C-7.33 29.66 -7.66 30.32 -8 31 C-8.66 31 -9.32 31 -10 31 C-10 28.03 -10 25.06 -10 22 C-10.99 22 -11.98 22 -13 22 C-13.33 21.34 -13.66 20.68 -14 20 C-14.99 19.67 -15.98 19.34 -17 19 C-17 18.34 -17 17.68 -17 17 C-18.051875 17.12375 -19.10375 17.2475 -20.1875 17.375 C-24 17 -24 17 -26.9375 14.375 C-29.16949766 10.72264019 -29.81674743 9.17448686 -29 5 C-27.5625 2.625 -27.5625 2.625 -25 1 C-21.89679611 0.4510578 -19.10110167 0.43029003 -16 1 C-13.9375 2.5625 -13.9375 2.5625 -13 5 C-12.8125 8.75 -12.8125 8.75 -13 12 C-12.34 12 -11.68 12 -11 12 C-11 8.37 -11 4.74 -11 1 C-10.34 1 -9.68 1 -9 1 C-8.93941406 1.78246094 -8.87882812 2.56492187 -8.81640625 3.37109375 C-8.69072266 4.88896484 -8.69072266 4.88896484 -8.5625 6.4375 C-8.48128906 7.44683594 -8.40007812 8.45617187 -8.31640625 9.49609375 C-8.26788532 11.93640779 -8.26788532 11.93640779 -7 13 C-5.33382885 13.04063832 -3.66611905 13.042721 -2 13 C-0.71553081 10.43106162 -0.67022856 8.23423663 -0.4375 5.375 C-0.35371094 4.37210937 -0.26992187 3.36921875 -0.18359375 2.3359375 C-0.09271484 1.17964844 -0.09271484 1.17964844 0 0 Z " fill="#141312" transform="translate(81,123)"/>
<path d="M0 0 C1.32 0.33 2.64 0.66 4 1 C4 3.64 4 6.28 4 9 C5.65 9 7.3 9 9 9 C9.66 10.65 10.32 12.3 11 14 C11.99 13.67 12.98 13.34 14 13 C13.34 12.34 12.68 11.68 12 11 C11.8046875 8.8359375 11.8046875 8.8359375 11.875 6.375 C11.89304687 5.55773437 11.91109375 4.74046875 11.9296875 3.8984375 C11.95289062 3.27195313 11.97609375 2.64546875 12 2 C12.66 2 13.32 2 14 2 C14.33 4.97 14.66 7.94 15 11 C15 10.67 15 10.34 15 10 C15 7.33333333 15 4.66666667 15 2 C17 1 17 1 20 1.8125 C23 3 23 3 25 5 C24.70764733 7.33882138 24.37400786 9.67284 24 12 C24.33 12.66 24.66 13.32 25 14 C23.9275 14.350625 22.855 14.70125 21.75 15.0625 C17.25917985 16.93898874 16.02795203 19.70074169 14 24 C13 21 13 21 13.9375 18.8125 C14.288125 18.214375 14.63875 17.61625 15 17 C13.02 17.33 11.04 17.66 9 18 C9 19.98 9 21.96 9 24 C8.01 24 7.02 24 6 24 C4.57142857 15.42857143 4.57142857 15.42857143 7 12 C5.35 11.67 3.7 11.34 2 11 C1.855625 9.9275 1.71125 8.855 1.5625 7.75 C1.16250558 5.08337051 0.72408076 2.58600271 0 0 Z " fill="#262221" transform="translate(101,143)"/>
<path d="M0 0 C1.588125 -0.061875 3.17625 -0.12375 4.8125 -0.1875 C6.15248047 -0.23970703 6.15248047 -0.23970703 7.51953125 -0.29296875 C10 0 10 0 11.796875 1.265625 C13.87312151 4.25865568 13.59609765 7.55511011 13 11 C11.5625 13.5 11.5625 13.5 9 15 C5.91796267 15.31828269 3.11507599 15.18323976 0 15 C0 10.05 0 5.1 0 0 Z " fill="#BDB8B3" transform="translate(87,124)"/>
<path d="M0 0 C1.66611905 -0.042721 3.33382885 -0.04063832 5 0 C5.33 0.33 5.66 0.66 6 1 C8.32817964 1.36760731 10.6618385 1.70241581 13 2 C13 2.66 13 3.32 13 4 C14.32 4.33 15.64 4.66 17 5 C17 5.66 17 6.32 17 7 C17.99 7 18.98 7 20 7 C20 9.97 20 12.94 20 16 C20.66 16.33 21.32 16.66 22 17 C20.02 17.33 18.04 17.66 16 18 C16 16.68 16 15.36 16 14 C15.38001259 11.98504093 14.72045764 9.9812585 14 8 C13.34 8 12.68 8 12 8 C11.814375 9.11375 11.62875 10.2275 11.4375 11.375 C10.7259375 13.169375 10.7259375 13.169375 10 15 C6.375 16.4375 6.375 16.4375 3 17 C4 14 4 14 6 12 C5.51996218 7.51964704 3.14217928 3.14217928 0 0 Z M22 13 C22.99 13.99 23.98 14.98 25 16 C24.01 16 23.02 16 22 16 C22 15.01 22 14.02 22 13 Z M1 17 C3 18 3 18 3 18 Z " fill="#0A0807" transform="translate(51,138)"/>
<path d="M0 0 C3.59519912 2.62352368 6.15521934 4.90048741 8 9 C7.6875 11.3125 7.6875 11.3125 7 13 C4.69 13.33 2.38 13.66 0 14 C-0.15855469 14.680625 -0.31710938 15.36125 -0.48046875 16.0625 C-2.59364999 24.84212595 -5.24120247 33.40738161 -8 42 C-8.33 42 -8.66 42 -9 42 C-8.61384316 34.92045794 -6.83050281 28.58289649 -4.7277832 21.85375977 C-3.78025421 18.797538 -3 16.22062154 -3 13 C-4.32 12.34 -5.64 11.68 -7 11 C-7 10.01 -7 9.02 -7 8 C-6.34 8 -5.68 8 -5 8 C-5 7.34 -5 6.68 -5 6 C-3.68 5.67 -2.36 5.34 -1 5 C-0.67 3.35 -0.34 1.7 0 0 Z " fill="#AC5954" transform="translate(164,43)"/>
<path d="M0 0 C10.60225485 0.37865196 21.84603547 4.69375652 31 10 C31.33 10.99 31.66 11.98 32 13 C30.77023438 12.98839844 29.54046875 12.97679687 28.2734375 12.96484375 C26.64062653 12.95545978 25.0078139 12.94636023 23.375 12.9375 C22.56675781 12.92912109 21.75851563 12.92074219 20.92578125 12.91210938 C16.49658082 12.8941045 12.36116576 13.10377338 8 14 C8 14.66 8 15.32 8 16 C5.69 15.34 3.38 14.68 1 14 C1.99 13.67 2.98 13.34 4 13 C4 12.34 4 11.68 4 11 C7.47325181 9.8422494 10.36067448 9.93133348 14 10 C13.67 8.68 13.34 7.36 13 6 C11.35 5.67 9.7 5.34 8 5 C8 4.34 8 3.68 8 3 C7.236875 3.061875 6.47375 3.12375 5.6875 3.1875 C2.51219194 2.96596688 2.04264341 2.28224968 0 0 Z " fill="#981D17" transform="translate(114,18)"/>
<path d="M0 0 C4.65853812 3.04340026 8.4434659 6.39730181 12.04174805 10.61474609 C16.98955215 16.62985373 16.98955215 16.62985373 24 19.625 C24.70125 19.67914063 25.4025 19.73328125 26.125 19.7890625 C28 20 28 20 31 22 C30.01 22 29.02 22 28 22 C28 22.99 28 23.98 28 25 C26.68 24.67 25.36 24.34 24 24 C24.33 22.68 24.66 21.36 25 20 C24.13375 20.7734375 24.13375 20.7734375 23.25 21.5625 C21 23 21 23 19.07299805 22.75561523 C16.78637109 21.9221315 15.41645831 20.93788066 13.58203125 19.34765625 C12.66067383 18.55391602 12.66067383 18.55391602 11.72070312 17.74414062 C11.09099609 17.18919922 10.46128906 16.63425781 9.8125 16.0625 C9.17119141 15.51142578 8.52988281 14.96035156 7.86914062 14.39257812 C3.14236111 10.28472222 3.14236111 10.28472222 2 8 C1.01 7.67 0.02 7.34 -1 7 C-0.34 9.31 0.32 11.62 1 14 C-1.81832513 12.59083743 -2.02593461 10.92219617 -3 8 C-3 7.01 -3 6.02 -3 5 C-1.68 5.33 -0.36 5.66 1 6 C0.67 4.02 0.34 2.04 0 0 Z " fill="#221C1C" transform="translate(99,73)"/>
<path d="M0 0 C0.99 0.33 1.98 0.66 3 1 C3.639375 0.814375 4.27875 0.62875 4.9375 0.4375 C7.60357285 -0.1280306 8.72275075 0.61738438 11 2 C7.25 4 7.25 4 5 4 C5 4.66 5 5.32 5 6 C5.66 6.33 6.32 6.66 7 7 C6.67 7.99 6.34 8.98 6 10 C5.01 10 4.02 10 3 10 C3 9.34 3 8.68 3 8 C1.29159719 9.63412443 0.06546953 10.86906094 -1 13 C-0.34 13 0.32 13 1 13 C1 14.32 1 15.64 1 17 C2.32 17.33 3.64 17.66 5 18 C4.34 18.33 3.68 18.66 3 19 C0.55667274 17.92481882 -1.76754523 16.80191434 -4.125 15.5625 C-4.78371094 15.22412109 -5.44242188 14.88574219 -6.12109375 14.53710938 C-7.75106547 13.69850074 -9.37601909 12.85015189 -11 12 C-9.68 11.34 -8.36 10.68 -7 10 C-7.66 8.35 -8.32 6.7 -9 5 C-8.34 5 -7.68 5 -7 5 C-7 4.01 -7 3.02 -7 2 C-6.34 2 -5.68 2 -5 2 C-5 2.66 -5 3.32 -5 4 C-3.35 3.34 -1.7 2.68 0 2 C0 1.34 0 0.68 0 0 Z " fill="#232120" transform="translate(65,167)"/>
<path d="M0 0 C1.58206057 0.00667536 3.16410534 0.0186375 4.74609375 0.03515625 C5.55240234 0.03966797 6.35871094 0.04417969 7.18945312 0.04882812 C9.18753131 0.06065107 11.18557158 0.07858711 13.18359375 0.09765625 C12.19359375 0.75765625 11.20359375 1.41765625 10.18359375 2.09765625 C10.18359375 2.75765625 10.18359375 3.41765625 10.18359375 4.09765625 C8.13671875 6.04296875 8.13671875 6.04296875 5.43359375 8.22265625 C4.551875 8.94710937 3.67015625 9.6715625 2.76171875 10.41796875 C0.18359375 12.09765625 0.18359375 12.09765625 -3.81640625 12.09765625 C-3.81640625 11.43765625 -3.81640625 10.77765625 -3.81640625 10.09765625 C-4.55890625 10.13890625 -5.30140625 10.18015625 -6.06640625 10.22265625 C-8.93600671 10.09221987 -10.33733931 9.44313275 -12.81640625 8.09765625 C-12.25050781 7.60394531 -11.68460938 7.11023438 -11.1015625 6.6015625 C-10.36808594 5.96089844 -9.63460937 5.32023437 -8.87890625 4.66015625 C-8.14800781 4.02207031 -7.41710938 3.38398437 -6.6640625 2.7265625 C-3.67809934 0.09411718 -3.67809934 0.09411718 0 0 Z " fill="#2C2422" transform="translate(58.81640625,90.90234375)"/>
<path d="M0 0 C-0.33 0.99 -0.66 1.98 -1 3 C-1.99 3 -2.98 3 -4 3 C-4.5775 3.804375 -5.155 4.60875 -5.75 5.4375 C-8.20690997 8.23564746 -9.17379631 8.47006814 -12.73974609 8.86303711 C-17.63586345 9.15972342 -22.53464019 9.10032622 -27.4375 9.0625 C-28.55060547 9.05798828 -29.66371094 9.05347656 -30.81054688 9.04882812 C-33.54042101 9.03711193 -36.27018174 9.02070699 -39 9 C-39 8.67 -39 8.34 -39 8 C-37.79601562 7.95101562 -36.59203125 7.90203125 -35.3515625 7.8515625 C-33.77601802 7.77653657 -32.20049834 7.70098867 -30.625 7.625 C-29.8309375 7.5940625 -29.036875 7.563125 -28.21875 7.53125 C-23.63332625 7.48183579 -23.63332625 7.48183579 -20 5 C-19.56880859 3.98873047 -19.56880859 3.98873047 -19.12890625 2.95703125 C-18 1 -18 1 -16.15234375 0.13671875 C-10.44310116 -1.02124051 -5.75912554 -0.91414691 0 0 Z " fill="#0F0D0C" transform="translate(129,181)"/>
<path d="M0 0 C0.33 1.98 0.66 3.96 1 6 C-2.49234244 6.09978121 -5.59437148 5.77842938 -9 5 C-11.27275989 8.21321225 -12.94758379 10.86419436 -14.375 14.5625 C-16.35383537 18.74849789 -18.31300756 20.29620554 -22 23 C-22 21.68 -22 20.36 -22 19 C-23.32 18.34 -24.64 17.68 -26 17 C-25.26007813 16.78085938 -24.52015625 16.56171875 -23.7578125 16.3359375 C-20.30316291 14.66243869 -19.02995233 12.77714596 -16.875 9.625 C-16.21242188 8.66851562 -15.54984375 7.71203125 -14.8671875 6.7265625 C-14.25101563 5.82679687 -13.63484375 4.92703125 -13 4 C-10.30038646 0.10276379 -10.30038646 0.10276379 -7.625 -0.8125 C-4.86721466 -1.00948467 -2.66855898 -0.68620088 0 0 Z " fill="#342D28" transform="translate(99,73)"/>
<path d="M0 0 C8 0 8 0 11 2 C11.1875 4.625 11.1875 4.625 11 7 C10.01 7.33 9.02 7.66 8 8 C8.474375 8.763125 8.94875 9.52625 9.4375 10.3125 C11 13 11 13 12 16 C11.01 16 10.02 16 9 16 C7.64721885 14.01310269 6.31431695 12.01254782 5 10 C4.01 9.67 3.02 9.34 2 9 C2 11.31 2 13.62 2 16 C1.34 16 0.68 16 0 16 C0 10.72 0 5.44 0 0 Z " fill="#BCB4AF" transform="translate(135,123)"/>
<path d="M0 0 C0.99 0.33 1.98 0.66 3 1 C3 1.99 3 2.98 3 4 C1.68 4.33 0.36 4.66 -1 5 C-0.91959473 5.55236328 -0.83918945 6.10472656 -0.75634766 6.67382812 C0.61049402 16.08768207 1.97409594 25.50243292 3.1875 34.9375 C3.34605469 36.16339844 3.50460938 37.38929687 3.66796875 38.65234375 C3.97975566 41.79588939 4.06264189 44.84381228 4 48 C1.69775146 45.69775146 1.64319244 44.95590904 1.22216797 41.82568359 C1.10219452 40.96494232 0.98222107 40.10420105 0.85861206 39.21737671 C0.73769196 38.28712677 0.61677185 37.35687683 0.4921875 36.3984375 C0.36184113 35.44683746 0.23149475 34.49523743 0.09719849 33.51480103 C-0.31811886 30.46921334 -0.72168035 27.42219742 -1.125 24.375 C-1.40417625 22.31239541 -1.68411448 20.24989379 -1.96484375 18.1875 C-2.65208322 13.12615347 -3.32878223 8.06349513 -4 3 C-5.65 3.33 -7.3 3.66 -9 4 C-8.34 3.67 -7.68 3.34 -7 3 C-7 2.34 -7 1.68 -7 1 C-4.69 1 -2.38 1 0 1 C0 0.67 0 0.34 0 0 Z " fill="#AB9E94" transform="translate(112,32)"/>
<path d="M0 0 C1.828125 0.09765625 1.828125 0.09765625 4 1 C5.484375 3.87109375 5.484375 3.87109375 6.75 7.4375 C7.17796875 8.61183594 7.6059375 9.78617188 8.046875 10.99609375 C9 14 9 14 9 16 C8.01 16 7.02 16 6 16 C6 15.01 6 14.02 6 13 C4.0509375 13.185625 4.0509375 13.185625 2.0625 13.375 C1.33160156 13.44460937 0.60070312 13.51421875 -0.15234375 13.5859375 C-0.76207031 13.72257813 -1.37179688 13.85921875 -2 14 C-2.33 14.66 -2.66 15.32 -3 16 C-3.66 16 -4.32 16 -5 16 C-3.90301833 10.30860098 -2.45946923 5.25432063 0 0 Z " fill="#B6AFAA" transform="translate(107,123)"/>
<path d="M0 0 C0.33 0 0.66 0 1 0 C1 5.28 1 10.56 1 16 C1.66 16 2.32 16 3 16 C3 13.69 3 11.38 3 9 C4.8125 9.1875 4.8125 9.1875 7 10 C8.8125 12.4375 8.8125 12.4375 10 15 C9.67 15.66 9.34 16.32 9 17 C6.4375 17.625 6.4375 17.625 4 18 C3.67 18.99 3.34 19.98 3 21 C2.195625 21.5775 1.39125 22.155 0.5625 22.75 C-2.64645139 25.56761585 -3.1308811 27.89143792 -4 32 C-4.33 32 -4.66 32 -5 32 C-5.05447047 30.58376784 -5.09300508 29.16691809 -5.125 27.75 C-5.14820313 26.96109375 -5.17140625 26.1721875 -5.1953125 25.359375 C-4.97962391 22.75385683 -4.3921178 21.20013023 -3 19 C-2.34 18.67 -1.68 18.34 -1 18 C-0.505 9.09 -0.505 9.09 0 0 Z " fill="#241E1C" transform="translate(134,123)"/>
<path d="M0 0 C0 0.66 0 1.32 0 2 C-1.32 2.33 -2.64 2.66 -4 3 C-4 3.99 -4 4.98 -4 6 C-3.01 6.33 -2.02 6.66 -1 7 C-1 6.01 -1 5.02 -1 4 C-0.34 4 0.32 4 1 4 C1 5.32 1 6.64 1 8 C-1.64 8.66 -4.28 9.32 -7 10 C-7.66 8.68 -8.32 7.36 -9 6 C-4.5 0 -4.5 0 0 0 Z M-12 0 C-11.34 0 -10.68 0 -10 0 C-9.67 2.97 -9.34 5.94 -9 9 C-11.97 9 -14.94 9 -18 9 C-18 6.36 -18 3.72 -18 1 C-14.125 2.875 -14.125 2.875 -13 4 C-12.67 2.68 -12.34 1.36 -12 0 Z " fill="#4D4845" transform="translate(153,145)"/>
<path d="M0 0 C-2.38586603 2.38586603 -4.70857882 3.4148152 -7.75 4.875 C-12.08272491 6.99970164 -16.09178319 9.17739897 -20 12 C-18.8933309 17.50730622 -17.50535767 22.70880872 -15.48828125 27.95703125 C-14.91894621 30.33912906 -15.34178165 31.67700114 -16 34 C-17.21105622 30.96719551 -18.38945361 27.92268623 -19.5625 24.875 C-19.90474609 24.0190625 -20.24699219 23.163125 -20.59960938 22.28125 C-22.40743301 17.53343034 -23.72167054 14.02541672 -22 9 C-17.89473684 5 -17.89473684 5 -15 5 C-14.67 4.34 -14.34 3.68 -14 3 C-12.67851173 2.62243192 -11.34164079 2.2981424 -10 2 C-8.7934375 1.4740625 -8.7934375 1.4740625 -7.5625 0.9375 C-4.85755065 -0.05211562 -2.85458841 -0.16311934 0 0 Z " fill="#A9665F" transform="translate(103,36)"/>
<path d="M0 0 C3.5625 0.375 3.5625 0.375 5.5 2.375 C5.850625 3.035 6.20125 3.695 6.5625 4.375 C5.5725 4.375 4.5825 4.375 3.5625 4.375 C3.5625 6.685 3.5625 8.995 3.5625 11.375 C0.1875 11.5 0.1875 11.5 -3.4375 11.375 C-5.4375 9.375 -5.4375 9.375 -5.6875 5.875 C-5.34932731 1.14058227 -4.70855617 0.51366067 0 0 Z " fill="#16130F" transform="translate(60.4375,125.625)"/>
<path d="M0 0 C0.33 0.99 0.66 1.98 1 3 C0.36191406 2.98839844 -0.27617188 2.97679688 -0.93359375 2.96484375 C-1.75988281 2.95582031 -2.58617187 2.94679688 -3.4375 2.9375 C-4.26121094 2.92589844 -5.08492187 2.91429688 -5.93359375 2.90234375 C-7.99163938 2.76732652 -7.99163938 2.76732652 -9 4 C-9.16666667 7.5 -9.16666667 7.5 -9 11 C-7.03177114 12.96822886 -3.65191291 12.66248381 -1 13 C-1 11.02 -1 9.04 -1 7 C-0.34 7 0.32 7 1 7 C1.1875 10.375 1.1875 10.375 1 14 C-2.52572807 16.35048538 -3.85013645 16.66397817 -8 16 C-11.19699553 13.08100408 -12.79025599 11.16524448 -13.5625 6.875 C-13 4 -13 4 -11.5625 1.625 C-7.79880462 -0.76173366 -4.34043107 -0.33387931 0 0 Z " fill="#A19C95" transform="translate(65,124)"/>
<path d="M0 0 C6.875 0.875 6.875 0.875 8 2 C8.27314815 7.73611111 8.27314815 7.73611111 8 10 C7.34 10.66 6.68 11.32 6 12 C4.02 12 2.04 12 0 12 C0 8.04 0 4.08 0 0 Z " fill="#100D0A" transform="translate(89,125)"/>
<path d="M0 0 C1.32 0.33 2.64 0.66 4 1 C4 3.64 4 6.28 4 9 C5.65 9 7.3 9 9 9 C9.2475 9.763125 9.495 10.52625 9.75 11.3125 C11.10995558 14.2364045 12.31585826 15.30004356 15 17 C13.02 17.33 11.04 17.66 9 18 C9 19.98 9 21.96 9 24 C8.01 24 7.02 24 6 24 C4.57142857 15.42857143 4.57142857 15.42857143 7 12 C5.35 11.67 3.7 11.34 2 11 C1.855625 9.9275 1.71125 8.855 1.5625 7.75 C1.16250558 5.08337051 0.72408076 2.58600271 0 0 Z " fill="#353431" transform="translate(101,143)"/>
<path d="M0 0 C5 1.66666667 10 3.33333333 15 5 C13.9375 6.5 13.9375 6.5 12 8 C8.375 8.25 8.375 8.25 5 8 C4.67 7.67 4.34 7.34 4 7 C1.98405418 6.76572222 -0.038474 6.58663876 -2.0625 6.4375 C-3.16722656 6.35371094 -4.27195312 6.26992187 -5.41015625 6.18359375 C-6.26480469 6.12300781 -7.11945313 6.06242187 -8 6 C-7.38125 5.71125 -6.7625 5.4225 -6.125 5.125 C-3.86674235 4.06279958 -3.86674235 4.06279958 -2 2 C-1.34 1.34 -0.68 0.68 0 0 Z " fill="#C3B8B0" transform="translate(129,104)"/>
<path d="M0 0 C0.66 0 1.32 0 2 0 C2.06058594 0.85464844 2.12117188 1.70929688 2.18359375 2.58984375 C2.26738281 3.69457031 2.35117188 4.79929687 2.4375 5.9375 C2.51871094 7.03964844 2.59992188 8.14179688 2.68359375 9.27734375 C2.70418084 11.91109903 2.70418084 11.91109903 4 13 C5.66617115 13.04063832 7.33388095 13.042721 9 13 C10.28446919 10.43106162 10.32977144 8.23423663 10.5625 5.375 C10.64628906 4.37210937 10.73007813 3.36921875 10.81640625 2.3359375 C10.87699219 1.56507812 10.93757812 0.79421875 11 0 C11.66 0 12.32 0 13 0 C13.0810206 2.10353495 13.13919907 4.20795952 13.1875 6.3125 C13.22230469 7.48425781 13.25710937 8.65601563 13.29296875 9.86328125 C13 13 13 13 11.70703125 14.89453125 C8.8322338 16.75624219 6.3093206 16.35457006 3 16 C1.29296875 14.89453125 1.29296875 14.89453125 0 13 C-0.29296875 9.86328125 -0.29296875 9.86328125 -0.1875 6.3125 C-0.16042969 5.13300781 -0.13335937 3.95351562 -0.10546875 2.73828125 C-0.07066406 1.83464844 -0.03585938 0.93101563 0 0 Z " fill="#B9B2AD" transform="translate(118,123)"/>
<path d="M0 0 C0.66 0 1.32 0 2 0 C2.0810206 2.10353495 2.13919907 4.20795952 2.1875 6.3125 C2.22230469 7.48425781 2.25710937 8.65601563 2.29296875 9.86328125 C2 13 2 13 0.7421875 14.89453125 C-2.50506665 16.95500866 -5.2347584 16.35859444 -9 16 C-11.35119399 12.47320901 -11.21443452 10.97120515 -11.125 6.8125 C-11.10695313 5.72582031 -11.08890625 4.63914062 -11.0703125 3.51953125 C-11.04710938 2.68808594 -11.02390625 1.85664062 -11 1 C-10.34 1 -9.68 1 -9 1 C-8.93941406 1.78246094 -8.87882812 2.56492187 -8.81640625 3.37109375 C-8.73261719 4.38300781 -8.64882812 5.39492187 -8.5625 6.4375 C-8.44068359 7.95150391 -8.44068359 7.95150391 -8.31640625 9.49609375 C-8.26788532 11.93640779 -8.26788532 11.93640779 -7 13 C-5.33382885 13.04063832 -3.66611905 13.042721 -2 13 C-0.71553081 10.43106162 -0.67022856 8.23423663 -0.4375 5.375 C-0.35371094 4.37210937 -0.26992187 3.36921875 -0.18359375 2.3359375 C-0.12300781 1.56507812 -0.06242187 0.79421875 0 0 Z " fill="#B2AEA7" transform="translate(81,123)"/>
<path d="M0 0 C3.3 0.33 6.6 0.66 10 1 C4.36144578 8.04819277 4.36144578 8.04819277 1 10 C-0.32 10 -1.64 10 -3 10 C-2.39009109 6.44219804 -1.4216319 3.3171411 0 0 Z " fill="#BEB4AC" transform="translate(58,93)"/>
<path d="M0 0 C0 0.33 0 0.66 0 1 C-1.4540625 1.05607422 -1.4540625 1.05607422 -2.9375 1.11328125 C-11.59476659 1.51541259 -19.80813155 2.54948295 -28.28125 4.37890625 C-32.3102189 5.05181177 -35.92541756 5.10366747 -40 5 C-29.1987235 -2.200851 -12.38930933 -0.35237971 0 0 Z " fill="#B4675D" transform="translate(112,17)"/>
<path d="M0 0 C2.97 0 5.94 0 9 0 C9 0.66 9 1.32 9 2 C8.01 2.66 7.02 3.32 6 4 C4.93753473 5.96752828 3.92862192 7.96587579 3 10 C2.34 9.34 1.68 8.68 1 8 C0.05125 8.515625 -0.8975 9.03125 -1.875 9.5625 C-2.90625 10.036875 -3.9375 10.51125 -5 11 C-5.66 10.67 -6.32 10.34 -7 10 C-6.67 9.34 -6.34 8.68 -6 8 C-3.9375 7.375 -3.9375 7.375 -2 7 C-1.67 5.35 -1.34 3.7 -1 2 C-0.67 2.66 -0.34 3.32 0 4 C0.66 4 1.32 4 2 4 C1.34 2.68 0.68 1.36 0 0 Z " fill="#2E2C2C" transform="translate(102,173)"/>
<path d="M0 0 C1.58965571 2.21701147 2.72327486 4.57862473 4 7 C3.071875 6.67 2.14375 6.34 1.1875 6 C-1.92029291 4.85032996 -1.92029291 4.85032996 -5 5 C-5.99 5.66 -6.98 6.32 -8 7 C-11.1875 7.125 -11.1875 7.125 -14 7 C-11.84767979 4.71315977 -9.63943055 2.94963331 -7 1.25 C-6.319375 0.80140625 -5.63875 0.3528125 -4.9375 -0.109375 C-3 -1 -3 -1 0 0 Z " fill="#BAB1AB" transform="translate(156,95)"/>
<path d="M0 0 C-0.30618405 3.67420866 -0.75771784 4.78135513 -3.5625 7.3125 C-4.366875 7.869375 -5.17125 8.42625 -6 9 C-7.64826111 6.03312999 -8.44271087 3.34373475 -9 0 C-5.67465243 -1.10844919 -3.37817425 -0.84454356 0 0 Z " fill="#0E0C0B" transform="translate(77,92)"/>
<path d="M0 0 C1.32 0.33 2.64 0.66 4 1 C4 3.97 4 6.94 4 10 C2.02 10.33 0.04 10.66 -2 11 C-2.95465783 8.83032311 -3.14401212 7.43671207 -2.3984375 5.17578125 C-1.64129615 3.4315257 -0.82390802 1.71372869 0 0 Z " fill="#A39C97" transform="translate(107,123)"/>
<path d="M0 0 C-1.56641751 4.30764815 -3.68336156 8.06171464 -6 12 C-6.33 12 -6.66 12 -7 12 C-7.33 10.35 -7.66 8.7 -8 7 C-8.99 7.495 -8.99 7.495 -10 8 C-10 5.69 -10 3.38 -10 1 C-3.375 0 -3.375 0 0 0 Z " fill="#A31F18" transform="translate(52,80)"/>
<path d="M0 0 C1.32 0 2.64 0 4 0 C5.125 6.75 5.125 6.75 4 9 C2.35 9 0.7 9 -1 9 C-1.625 5.625 -1.625 5.625 -2 2 C-1.34 1.34 -0.68 0.68 0 0 Z " fill="#898683" transform="translate(99,158)"/>
<path d="M0 0 C1.2065625 0.0309375 1.2065625 0.0309375 2.4375 0.0625 C3.53408936 3.35226808 3.23703138 4.77553767 2.4375 8.0625 C0.0625 8.1875 0.0625 8.1875 -2.5625 8.0625 C-3.2225 7.4025 -3.8825 6.7425 -4.5625 6.0625 C-3.83457637 0.09352625 -3.83457637 0.09352625 0 0 Z " fill="#4A4945" transform="translate(96.5625,145.9375)"/>
<path d="M0 0 C4.75 0.75 4.75 0.75 7 3 C6.625 5.625 6.625 5.625 6 8 C4.02 8.33 2.04 8.66 0 9 C0 6.03 0 3.06 0 0 Z " fill="#7D7976" transform="translate(119,145)"/>
<path d="M0 0 C3.33066867 1.29977314 5.05192025 3.48942025 7.5625 6 C10.24040896 6.87238858 10.24040896 6.87238858 12.5625 7 C12.5625 7.99 12.5625 8.98 12.5625 10 C12.2325 9.34 11.9025 8.68 11.5625 8 C11.02625 8.226875 10.49 8.45375 9.9375 8.6875 C6.45723165 9.14543005 4.50820718 7.76742431 1.5625 6 C1.2325 5.34 0.9025 4.68 0.5625 4 C-0.3346875 4.309375 -0.3346875 4.309375 -1.25 4.625 C-3.4375 5 -3.4375 5 -6.4375 3 C-4.2171897 0.94415713 -3.07969154 0 0 0 Z " fill="#413932" transform="translate(154.4375,91)"/>
<path d="M0 0 C0.99 0.99 1.98 1.98 3 3 C2.71125 3.66 2.4225 4.32 2.125 5 C-1.21486 13.90629334 -1.56637313 22.59714365 -2 32 C-2.33 32 -2.66 32 -3 32 C-4.8867877 21.24531008 -2.97748532 10.42119862 0 0 Z " fill="#B36054" transform="translate(16,80)"/>
<path d="M0 0 C-2.10148204 3.98175544 -4.36905358 6.35039045 -8 9 C-8 7.68 -8 6.36 -8 5 C-9.32 4.34 -10.64 3.68 -12 3 C-10.75823305 2.29773859 -9.50614401 1.61370891 -8.25 0.9375 C-7.20585938 0.36322266 -7.20585938 0.36322266 -6.140625 -0.22265625 C-3.63859372 -1.1312406 -2.4667645 -0.88336837 0 0 Z " fill="#1E1C19" transform="translate(85,87)"/>
<path d="M0 0 C0.99 0 1.98 0 3 0 C3 5.28 3 10.56 3 16 C2.01 16 1.02 16 0 16 C0 10.72 0 5.44 0 0 Z " fill="#9F9894" transform="translate(150,123)"/>
<path d="M0 0 C0.33 0.99 0.66 1.98 1 3 C-0.22976562 2.98839844 -1.45953125 2.97679687 -2.7265625 2.96484375 C-4.35937347 2.95545978 -5.9921861 2.94636023 -7.625 2.9375 C-8.43324219 2.92912109 -9.24148437 2.92074219 -10.07421875 2.91210938 C-14.50341918 2.8941045 -18.63883424 3.10377338 -23 4 C-23 4.66 -23 5.32 -23 6 C-25.31 5.34 -27.62 4.68 -30 4 C-29.01 3.67 -28.02 3.34 -27 3 C-26.34 3.33 -25.68 3.66 -25 4 C-25 3.34 -25 2.68 -25 2 C-22.14199792 1.20214447 -19.48487606 0.8260007 -16.5234375 0.68359375 C-15.688125 0.64169922 -14.8528125 0.59980469 -13.9921875 0.55664062 C-13.12851563 0.51732422 -12.26484375 0.47800781 -11.375 0.4375 C-10.50359375 0.39431641 -9.6321875 0.35113281 -8.734375 0.30664062 C-2.44580853 0 -2.44580853 0 0 0 Z " fill="#E1897E" transform="translate(145,28)"/>
<path d="M0 0 C0.99 0.33 1.98 0.66 3 1 C5.63804589 0.60602665 5.63804589 0.60602665 8 0 C7.01 0.495 7.01 0.495 6 1 C6 1.66 6 2.32 6 3 C6.99 3.33 7.98 3.66 9 4 C7.39935157 4.53154742 5.79431126 5.04988353 4.1875 5.5625 C3.29417969 5.85253906 2.40085937 6.14257812 1.48046875 6.44140625 C-1 7 -1 7 -4 6 C-2.68 4.02 -1.36 2.04 0 0 Z " fill="#363331" transform="translate(125,182)"/>
<path d="M0 0 C0.33 0 0.66 0 1 0 C1.07347656 1.37285156 1.07347656 1.37285156 1.1484375 2.7734375 C1.22320312 3.96195312 1.29796875 5.15046875 1.375 6.375 C1.47941406 8.15003906 1.47941406 8.15003906 1.5859375 9.9609375 C1.70217346 13.10562319 1.70217346 13.10562319 4 15 C5.98821313 15.39764263 7.98944339 15.73775349 10 16 C10 16.33 10 16.66 10 17 C7.69 17.66 5.38 18.32 3 19 C3 18.34 3 17.68 3 17 C0.69 17 -1.62 17 -4 17 C-3.01 16.67 -2.02 16.34 -1 16 C-1.33 15.01 -1.66 14.02 -2 13 C-1.75754106 10.76213183 -1.43611971 8.53224066 -1.0625 6.3125 C-0.86785156 5.13300781 -0.67320313 3.95351562 -0.47265625 2.73828125 C-0.31667969 1.83464844 -0.16070312 0.93101563 0 0 Z " fill="#241E19" transform="translate(117,123)"/>
<path d="M0 0 C0.33 0 0.66 0 1 0 C1.02685938 2.14576637 1.04633088 4.29162645 1.0625 6.4375 C1.07410156 7.63246094 1.08570312 8.82742187 1.09765625 10.05859375 C1 13 1 13 0 14 C-2.5 14.125 -2.5 14.125 -5 14 C-6 13 -6 13 -6.09765625 10.27734375 C-6.08605469 9.17519531 -6.07445313 8.07304687 -6.0625 6.9375 C-6.05347656 5.83277344 -6.04445313 4.72804688 -6.03515625 3.58984375 C-6.02355469 2.73519531 -6.01195313 1.88054687 -6 1 C-5.67 1 -5.34 1 -5 1 C-5 3.31 -5 5.62 -5 8 C-4.34 8 -3.68 8 -3 8 C-2.67 8.33 -2.34 8.66 -2 9 C-1.67 9 -1.34 9 -1 9 C-0.67 6.03 -0.34 3.06 0 0 Z " fill="#0A0705" transform="translate(79,123)"/>
<path d="M0 0 C0.33 0.66 0.66 1.32 1 2 C2.32 1.67 3.64 1.34 5 1 C5.33 2.32 5.66 3.64 6 5 C5.12988281 5.18175781 5.12988281 5.18175781 4.2421875 5.3671875 C-0.28028442 6.33735474 -4.63750966 7.43397783 -9 9 C-6.31941902 5.42589203 -3.57410797 2.68058098 0 0 Z " fill="#B7B0A8" transform="translate(81,92)"/>
<path d="M0 0 C0.99 0.33 1.98 0.66 3 1 C3.639375 0.814375 4.27875 0.62875 4.9375 0.4375 C7.60357285 -0.1280306 8.72275075 0.61738438 11 2 C7.25 4 7.25 4 5 4 C4.67 4.99 4.34 5.98 4 7 C3.34 6.67 2.68 6.34 2 6 C2.33 5.34 2.66 4.68 3 4 C2.01 4.66 1.02 5.32 0 6 C-0.99 6.495 -0.99 6.495 -2 7 C-2 5.35 -2 3.7 -2 2 C-1.34 2 -0.68 2 0 2 C0 1.34 0 0.68 0 0 Z " fill="#353533" transform="translate(65,167)"/>
<path d="M0 0 C2.5625 0.375 2.5625 0.375 4.375 2.375 C4.766875 3.035 5.15875 3.695 5.5625 4.375 C4.5725 4.705 3.5825 5.035 2.5625 5.375 C1.5725 6.86 1.5725 6.86 0.5625 8.375 C-0.0975 7.715 -0.7575 7.055 -1.4375 6.375 C-2.4275 6.87 -2.4275 6.87 -3.4375 7.375 C-4.0625 5 -4.0625 5 -4.4375 2.375 C-2.4375 0.375 -2.4375 0.375 0 0 Z " fill="#0B0908" transform="translate(61.4375,125.625)"/>
<path d="M0 0 C6.80959748 1.00882926 12.03855935 4.79935927 16.5625 9.875 C17.036875 10.57625 17.51125 11.2775 18 12 C15 12 15 12 12.4375 9.5625 C11.633125 8.716875 10.82875 7.87125 10 7 C9.34 6.67 8.68 6.34 8 6 C8 5.34 8 4.68 8 4 C6.02 4 4.04 4 2 4 C2 3.01 2 2.02 2 1 C1.34 0.67 0.68 0.34 0 0 Z " fill="#A64641" transform="translate(146,31)"/>
<path d="M0 0 C1.65 0 3.3 0 5 0 C5.66666667 2.66666667 6.33333333 5.33333333 7 8 C5.68 7.34 4.36 6.68 3 6 C2.67 6.66 2.34 7.32 2 8 C1.34 8 0.68 8 0 8 C0 5.36 0 2.72 0 0 Z " fill="#64635F" transform="translate(71,146)"/>
<path d="M0 0 C1.65 0 3.3 0 5 0 C4.62488281 0.43570313 4.24976562 0.87140625 3.86328125 1.3203125 C0.54140223 5.18607599 -2.74642927 9.07657648 -6 13 C-6.66 11.68 -7.32 10.36 -8 9 C-3.25 5 -3.25 5 -1 5 C-0.67 3.35 -0.34 1.7 0 0 Z " fill="#AF433D" transform="translate(66,58)"/>
<path d="M0 0 C1.65 0.33 3.3 0.66 5 1 C5.33 2.98 5.66 4.96 6 7 C4.35 7 2.7 7 1 7 C1 6.01 1 5.02 1 4 C-0.65 4 -2.3 4 -4 4 C-4 3.34 -4 2.68 -4 2 C-2.68 2 -1.36 2 0 2 C0 1.34 0 0.68 0 0 Z " fill="#211919" transform="translate(94,72)"/>
<path d="M0 0 C1.41791408 0.45445964 2.83428046 0.91374944 4.25 1.375 C5.43335938 1.75785156 5.43335938 1.75785156 6.640625 2.1484375 C8.86627958 2.95173667 10.90931672 3.89711662 13 5 C13 5.66 13 6.32 13 7 C9.7 7 6.4 7 3 7 C3.66 6.67 4.32 6.34 5 6 C4.67 4.68 4.34 3.36 4 2 C3.01 2.33 2.02 2.66 1 3 C0.67 2.01 0.34 1.02 0 0 Z " fill="#A04A44" transform="translate(130,22)"/>
<path d="M0 0 C0.94875 0.04125 1.8975 0.0825 2.875 0.125 C0.36092381 4.40824091 -1.24814139 6.77031705 -6.125 8.125 C-5.09178322 0.20367133 -5.09178322 0.20367133 0 0 Z " fill="#9C261E" transform="translate(32.125,106.875)"/>
<path d="M0 0 C1.65 0.33 3.3 0.66 5 1 C3.02 1.99 3.02 1.99 1 3 C1 3.66 1 4.32 1 5 C-2.375 5.125 -2.375 5.125 -6 5 C-6.66 4.34 -7.32 3.68 -8 3 C-6 1 -6 1 -2.875 0.875 C-1.92625 0.91625 -0.9775 0.9575 0 1 C0 0.67 0 0.34 0 0 Z " fill="#951B15" transform="translate(121,32)"/>
<path d="M0 0 C0.99 0.33 1.98 0.66 3 1 C2.67 1.66 2.34 2.32 2 3 C1.34 2.01 0.68 1.02 0 0 Z M-1 3 C-0.01 3 0.98 3 2 3 C2.33 4.65 2.66 6.3 3 8 C3.99 8.33 4.98 8.66 6 9 C5 12 5 12 1.9375 13.6875 C0.968125 14.120625 -0.00125 14.55375 -1 15 C-1.33 14.01 -1.66 13.02 -2 12 C-1.34 11.67 -0.68 11.34 0 11 C0.40729228 8.67843403 0.74438677 6.3431213 1 4 C0.34 3.67 -0.32 3.34 -1 3 Z " fill="#211D1A" transform="translate(65,127)"/>
<path d="M0 0 C1.65 0 3.3 0 5 0 C4.42655063 2.86724686 4.1385485 3.8614515 2 6 C1.28072705 8.31765729 0.6090107 10.65095874 0 13 C-0.33 13 -0.66 13 -1 13 C-1.0272415 11.58344207 -1.04650467 10.16672955 -1.0625 8.75 C-1.07410156 7.96109375 -1.08570313 7.1721875 -1.09765625 6.359375 C-1.00385306 4.09308998 -0.63241063 2.1711105 0 0 Z " fill="#363231" transform="translate(130,142)"/>
<path d="M0 0 C1.98 0.495 1.98 0.495 4 1 C4 6.94 4 12.88 4 19 C3.67 19 3.34 19 3 19 C2.87882812 17.86820313 2.75765625 16.73640625 2.6328125 15.5703125 C2.46399724 14.08848969 2.29470145 12.60672158 2.125 11.125 C2.04636719 10.37863281 1.96773438 9.63226563 1.88671875 8.86328125 C1.4919231 4.47444593 1.4919231 4.47444593 -1 1 C-0.67 0.67 -0.34 0.34 0 0 Z " fill="#0A0401" transform="translate(82,121)"/>
<path d="M0 0 C1.65 1.65 3.3 3.3 5 5 C4.01 5.99 3.02 6.98 2 8 C1.01 7.67 0.02 7.34 -1 7 C-0.34 9.31 0.32 11.62 1 14 C-1.81832513 12.59083743 -2.02593461 10.92219617 -3 8 C-3 7.01 -3 6.02 -3 5 C-1.68 5.33 -0.36 5.66 1 6 C0.67 4.02 0.34 2.04 0 0 Z " fill="#544D4A" transform="translate(99,73)"/>
<path d="M0 0 C1.8125 0.1875 1.8125 0.1875 4 1 C5.8125 3.4375 5.8125 3.4375 7 6 C6.67 6.66 6.34 7.32 6 8 C3.03 7.505 3.03 7.505 0 7 C0 4.69 0 2.38 0 0 Z " fill="#2B2520" transform="translate(137,132)"/>
<path d="M0 0 C-1.0625 1.5 -1.0625 1.5 -3 3 C-6.6875 3.1875 -6.6875 3.1875 -10 3 C-10.33 2.01 -10.66 1.02 -11 0 C-7.07632508 -2.82504594 -4.32061114 -1.49559616 0 0 Z " fill="#B9B0A9" transform="translate(144,109)"/>
<path d="M0 0 C1.36511719 0.43119141 1.36511719 0.43119141 2.7578125 0.87109375 C3.45648438 1.09925781 4.15515625 1.32742187 4.875 1.5625 C3.885 1.8925 2.895 2.2225 1.875 2.5625 C1.875 3.5525 1.875 4.5425 1.875 5.5625 C0.555 5.2325 -0.765 4.9025 -2.125 4.5625 C-1.795 3.2425 -1.465 1.9225 -1.125 0.5625 C-1.723125 1.078125 -2.32125 1.59375 -2.9375 2.125 C-3.659375 2.599375 -4.38125 3.07375 -5.125 3.5625 C-6.115 3.2325 -7.105 2.9025 -8.125 2.5625 C-7.465 2.5625 -6.805 2.5625 -6.125 2.5625 C-6.455 1.5725 -6.785 0.5825 -7.125 -0.4375 C-4.30685434 -1.84657283 -2.95222796 -0.94622691 0 0 Z " fill="#4F4746" transform="translate(125.125,92.4375)"/>
<path d="M0 0 C0.66 0 1.32 0 2 0 C1.56152777 4.82319458 0.66498817 6.85858157 -3 10 C-3.7425 10.7425 -4.485 11.485 -5.25 12.25 C-5.8275 12.8275 -6.405 13.405 -7 14 C-7.33 12.68 -7.66 11.36 -8 10 C-7.01 10 -6.02 10 -5 10 C-5 9.34 -5 8.68 -5 8 C-4.34 8 -3.68 8 -3 8 C-2.67 6.35 -2.34 4.7 -2 3 C-1.34 3 -0.68 3 0 3 C0 2.01 0 1.02 0 0 Z " fill="#9C3327" transform="translate(42,93)"/>
<path d="M0 0 C5.61 0 11.22 0 17 0 C16.01 0.66 15.02 1.32 14 2 C13.67 2.66 13.34 3.32 13 4 C11.01926635 3.719172 9.04041552 3.42503386 7.0625 3.125 C5.40927734 2.88136719 5.40927734 2.88136719 3.72265625 2.6328125 C2.82417969 2.42398438 1.92570312 2.21515625 1 2 C0.67 1.34 0.34 0.68 0 0 Z " fill="#4B433B" transform="translate(55,91)"/>
<path d="M0 0 C0.33 0.66 0.66 1.32 1 2 C-0.73407158 7.20221474 -2.34133287 9.85225194 -7 13 C-7 9.16235973 -5.73464665 7.88513915 -3.5 4.8125 C-2.8503125 3.91144531 -2.200625 3.01039062 -1.53125 2.08203125 C-1.0259375 1.39496094 -0.520625 0.70789062 0 0 Z " fill="#A43F35" transform="translate(33,48)"/>
<path d="M0 0 C1.98 0 3.96 0 6 0 C6.5625 1.9375 6.5625 1.9375 7 4 C6 5 6 5 2.9375 5.0625 C1.4834375 5.0315625 1.4834375 5.0315625 0 5 C0 3.35 0 1.7 0 0 Z " fill="#2F2620" transform="translate(137,125)"/>
<path d="M0 0 C0.33 0.66 0.66 1.32 1 2 C-0.21484375 4.3828125 -0.21484375 4.3828125 -1.9375 7.125 C-2.50339844 8.03507813 -3.06929687 8.94515625 -3.65234375 9.8828125 C-4.09707031 10.58148438 -4.54179687 11.28015625 -5 12 C-5.66 10.68 -6.32 9.36 -7 8 C-6.21366078 6.85050412 -5.42073742 5.70551011 -4.625 4.5625 C-4.18414062 3.92441406 -3.74328125 3.28632813 -3.2890625 2.62890625 C-2 1 -2 1 0 0 Z " fill="#3E3A36" transform="translate(180,142)"/>
<path d="M0 0 C0.99 0.33 1.98 0.66 3 1 C3 1.99 3 2.98 3 4 C1.02 4.99 1.02 4.99 -1 6 C-1.5878125 5.2265625 -1.5878125 5.2265625 -2.1875 4.4375 C-2.785625 3.963125 -3.38375 3.48875 -4 3 C-6.65466049 3.23043864 -6.65466049 3.23043864 -9 4 C-8.34 3.67 -7.68 3.34 -7 3 C-7 2.34 -7 1.68 -7 1 C-4.69 1 -2.38 1 0 1 C0 0.67 0 0.34 0 0 Z " fill="#B87067" transform="translate(112,32)"/>
<path d="M0 0 C-0.3125 1.9375 -0.3125 1.9375 -1 4 C-1.99 4.33 -2.98 4.66 -4 5 C-4 5.66 -4 6.32 -4 7 C-2.68 7.33 -1.36 7.66 0 8 C-1.98 8 -3.96 8 -6 8 C-5.6875 6.0625 -5.6875 6.0625 -5 4 C-4.01 3.67 -3.02 3.34 -2 3 C-2 2.34 -2 1.68 -2 1 C-3.32 1.33 -4.64 1.66 -6 2 C-6 1.34 -6 0.68 -6 0 C-3.50907189 -1.24546405 -2.58919267 -0.7767578 0 0 Z " fill="#86827D" transform="translate(96,159)"/>
<path d="M0 0 C0.99 0.33 1.98 0.66 3 1 C4.1875 4.5625 4.1875 4.5625 5 8 C4.21625 7.814375 3.4325 7.62875 2.625 7.4375 C0.02910225 6.74037734 0.02910225 6.74037734 -2 8 C-1.125 2.25 -1.125 2.25 0 0 Z " fill="#71716A" transform="translate(84,146)"/>
<path d="M0 0 C1.65 0 3.3 0 5 0 C5.33 1.32 5.66 2.64 6 4 C4.35 4.33 2.7 4.66 1 5 C0.67 5.99 0.34 6.98 0 8 C0 5.36 0 2.72 0 0 Z " fill="#63615E" transform="translate(52,146)"/>
<path d="M0 0 C1.32 0.33 2.64 0.66 4 1 C3.01 1 2.02 1 1 1 C1.02320312 1.83144531 1.04640625 2.66289063 1.0703125 3.51953125 C1.08835937 4.60621094 1.10640625 5.69289063 1.125 6.8125 C1.14820312 7.89144531 1.17140625 8.97039062 1.1953125 10.08203125 C1 13 1 13 -1 16 C-0.98839844 15.31292969 -0.97679688 14.62585938 -0.96484375 13.91796875 C-0.95582031 13.01691406 -0.94679688 12.11585938 -0.9375 11.1875 C-0.92589844 10.29417969 -0.91429688 9.40085938 -0.90234375 8.48046875 C-0.88990033 5.86586209 -0.88990033 5.86586209 -2 3 C-1.34 2.01 -0.68 1.02 0 0 Z " fill="#070401" transform="translate(68,122)"/>
<path d="M0 0 C0.66 0.33 1.32 0.66 2 1 C1.690625 1.5775 1.38125 2.155 1.0625 2.75 C0.07416636 4.84294184 -0.5168613 6.74535275 -1 9 C-2.65 9 -4.3 9 -6 9 C-4.68775452 5.06326356 -3.08089673 2.77280706 0 0 Z " fill="#28221F" transform="translate(44,100)"/>
<path d="M0 0 C0.598125 0.350625 1.19625 0.70125 1.8125 1.0625 C1.8125 1.7225 1.8125 2.3825 1.8125 3.0625 C1.1525 3.0625 0.4925 3.0625 -0.1875 3.0625 C-0.5175 4.3825 -0.8475 5.7025 -1.1875 7.0625 C-1.8475 7.0625 -2.5075 7.0625 -3.1875 7.0625 C-5.1875 4.0625 -5.1875 4.0625 -5.1875 0.0625 C-2.1875 -0.9375 -2.1875 -0.9375 0 0 Z " fill="#1C191A" transform="translate(102.1875,173.9375)"/>
<path d="M0 0 C1.32 0 2.64 0 4 0 C4 0.99 4 1.98 4 3 C3.34 3 2.68 3 2 3 C2.33 3.99 2.66 4.98 3 6 C0.69 6 -1.62 6 -4 6 C-3.34 4.68 -2.68 3.36 -2 2 C-1.34 2 -0.68 2 0 2 C0 1.34 0 0.68 0 0 Z " fill="#0C0808" transform="translate(107,167)"/>
<path d="M0 0 C3.875 1.875 3.875 1.875 5 3 C5.66 2.01 6.32 1.02 7 0 C7 2.31 7 4.62 7 7 C6.01 6.67 5.02 6.34 4 6 C3.67 5.34 3.34 4.68 3 4 C2.67 4.99 2.34 5.98 2 7 C1.34 7 0.68 7 0 7 C0 4.69 0 2.38 0 0 Z " fill="#84807D" transform="translate(135,146)"/>
<path d="M0 0 C0.70125 0.309375 1.4025 0.61875 2.125 0.9375 C4.99973255 2.10724581 4.99973255 2.10724581 8.1875 2.5 C11 3 11 3 13 5 C9.71303767 5.79953138 8.28976808 6.09658936 5 5 C4.01 5.495 4.01 5.495 3 6 C0 2.25 0 2.25 0 0 Z " fill="#1F1918" transform="translate(158,97)"/>
<path d="M0 0 C0.33 1.32 0.66 2.64 1 4 C-2.50776784 5.60355101 -5.14354879 6.22036864 -9 6 C-9 5.01 -9 4.02 -9 3 C-5.92382812 2.70703125 -5.92382812 2.70703125 -2.84765625 2.4140625 C-2.23792969 2.27742187 -1.62820312 2.14078125 -1 2 C-0.67 1.34 -0.34 0.68 0 0 Z " fill="#3A3837" transform="translate(124,175)"/>
<path d="M0 0 C3.16736868 1.63167477 3.93473367 2.83357085 5.25 6.1875 C5.4975 7.115625 5.745 8.04375 6 9 C1.7257442 7.4169423 -0.26531794 4.49431596 -3 1 C-2.01 0.67 -1.02 0.34 0 0 Z " fill="#413E37" transform="translate(40,163)"/>
<path d="M0 0 C0.66 0 1.32 0 2 0 C2.33 0.99 2.66 1.98 3 3 C2.67 3.33 2.34 3.66 2 4 C1.76924918 5.34747084 1.58846937 6.70377565 1.4375 8.0625 C1.2209375 10.0115625 1.2209375 10.0115625 1 12 C0.67 11.01 0.34 10.02 0 9 C-0.66 9 -1.32 9 -2 9 C-2.20140476 5.37471432 -1.85776765 3.13498292 0 0 Z " fill="#0D0908" transform="translate(128,142)"/>
<path d="M0 0 C0.33 0 0.66 0 1 0 C1.33 5.61 1.66 11.22 2 17 C-0.475 16.01 -0.475 16.01 -3 15 C-2.34 14.01 -1.68 13.02 -1 12 C-0.54084493 9.03157342 -0.54084493 9.03157342 -0.375 5.8125 C-0.30023438 4.72582031 -0.22546875 3.63914062 -0.1484375 2.51953125 C-0.09945312 1.68808594 -0.05046875 0.85664062 0 0 Z " fill="#201A15" transform="translate(83,124)"/>
<path d="M0 0 C0.66 0 1.32 0 2 0 C4.125 4.625 4.125 4.625 3 8 C3 7.34 3 6.68 3 6 C1.68 6 0.36 6 -1 6 C-1 6.66 -1 7.32 -1 8 C-1.66 7.67 -2.32 7.34 -3 7 C-2.01 4.69 -1.02 2.38 0 0 Z " fill="#74726D" transform="translate(63,146)"/>
<path d="M0 0 C0.66 0.33 1.32 0.66 2 1 C1.67 3.97 1.34 6.94 1 10 C-0.32 10 -1.64 10 -3 10 C-2.39009109 6.44219804 -1.4216319 3.3171411 0 0 Z " fill="#B4ABA3" transform="translate(58,93)"/>
<path d="M0 0 C2.475 0.99 2.475 0.99 5 2 C5 3.32 5 4.64 5 6 C2.03 5.505 2.03 5.505 -1 5 C-0.67 3.35 -0.34 1.7 0 0 Z " fill="#242021" transform="translate(103,78)"/>
<path d="M0 0 C2.31 0.33 4.62 0.66 7 1 C7 1.99 7 2.98 7 4 C5.35 3.67 3.7 3.34 2 3 C1.67 5.97 1.34 8.94 1 12 C0.67 12 0.34 12 0 12 C0 8.04 0 4.08 0 0 Z " fill="#27221E" transform="translate(89,125)"/>
<path d="M0 0 C0.99 0.33 1.98 0.66 3 1 C0.525 4.465 0.525 4.465 -2 8 C-2.66 7.67 -3.32 7.34 -4 7 C-3.6875 4.625 -3.6875 4.625 -3 2 C-2.01 1.34 -1.02 0.68 0 0 Z " fill="#A6342C" transform="translate(55,72)"/>
<path d="M0 0 C2.3125 0.1875 2.3125 0.1875 5 1 C6.93791421 3.63002642 7.96704519 5.90113556 9 9 C8.01 9 7.02 9 6 9 C5.0234375 7.2421875 4.046875 5.484375 3.0703125 3.7265625 C1.99102726 1.8387386 1.99102726 1.8387386 0 0 Z " fill="#ACA5A0" transform="translate(138,130)"/>
<path d="M0 0 C1.20628008 2.33214148 2.1654738 4.49642139 3 7 C2.67 7.99 2.34 8.98 2 10 C2.66 10 3.32 10 4 10 C4.33 9.34 4.66 8.68 5 8 C5.33 8.99 5.66 9.98 6 11 C5.01 11.495 5.01 11.495 4 12 C1 11 1 11 -0.25 8.8125 C-1.12860506 5.51773102 -0.76557916 3.29199038 0 0 Z " fill="#1E1A15" transform="translate(100,129)"/>
<path d="M0 0 C0.66 0.33 1.32 0.66 2 1 C1.67 1.66 1.34 2.32 1 3 C1.99 3.33 2.98 3.66 4 4 C2.625 5.5 2.625 5.5 1 7 C0.34 7 -0.32 7 -1 7 C-1.33 7.66 -1.66 8.32 -2 9 C-2.33 7.68 -2.66 6.36 -3 5 C-2.34 4.67 -1.68 4.34 -1 4 C-0.34786708 1.97536745 -0.34786708 1.97536745 0 0 Z " fill="#211A16" transform="translate(146,126)"/>
<path d="M0 0 C3.875 1.875 3.875 1.875 5 3 C5.14115161 5.67058851 5.04247107 8.32432238 5 11 C4.01 10.67 3.02 10.34 2 10 C1.87625 8.88625 1.7525 7.7725 1.625 6.625 C1.3534187 2.96896323 1.3534187 2.96896323 -1 1 C-0.67 0.67 -0.34 0.34 0 0 Z " fill="#96928D" transform="translate(95,124)"/>
<path d="M0 0 C2.75 0.25 2.75 0.25 5 1 C4.34 2.32 3.68 3.64 3 5 C0.69 4.67 -1.62 4.34 -4 4 C-2.3125 1.9375 -2.3125 1.9375 0 0 Z " fill="#2E2422" transform="translate(27,121)"/>
<path d="M0 0 C3.125 0.375 3.125 0.375 6 1 C1.25 4.875 1.25 4.875 -1 6 C-1.625 4.125 -1.625 4.125 -2 2 C-1.34 1.34 -0.68 0.68 0 0 Z " fill="#37312F" transform="translate(150,172)"/>
<path d="M0 0 C0.33 0 0.66 0 1 0 C2.25908029 3.54116331 3 6.23903442 3 10 C1.35 10 -0.3 10 -2 10 C-2.33 9.34 -2.66 8.68 -3 8 C-2.01 8 -1.02 8 0 8 C-0.185625 7.05125 -0.37125 6.1025 -0.5625 5.125 C-1 2 -1 2 0 0 Z " fill="#080605" transform="translate(91,147)"/>
<path d="M0 0 C0.721875 0.474375 1.44375 0.94875 2.1875 1.4375 C4.89475226 2.94152903 6.96194275 3.56599182 10 4 C10 4.99 10 5.98 10 7 C9.67 6.34 9.34 5.68 9 5 C8.46375 5.226875 7.9275 5.45375 7.375 5.6875 C3.93918099 6.13958145 1.94233306 4.67178015 -1 3 C-0.67 2.01 -0.34 1.02 0 0 Z " fill="#5B524A" transform="translate(157,94)"/>
<path d="M0 0 C2.64752004 2.57784846 4.94432065 4.91648098 7 8 C4 8 4 8 1.8125 6.8125 C0 5 0 5 -0.25 2.3125 C-0.1675 1.549375 -0.085 0.78625 0 0 Z " fill="#383330" transform="translate(108,81)"/>
<path d="M0 0 C-1.65 0.66 -3.3 1.32 -5 2 C-5 2.66 -5 3.32 -5 4 C-7.64 4.33 -10.28 4.66 -13 5 C-11.5977422 2.1954844 -9.93929378 1.9557882 -7.0625 0.8125 C-6.16660156 0.44769531 -5.27070312 0.08289063 -4.34765625 -0.29296875 C-2 -1 -2 -1 0 0 Z " fill="#A64B40" transform="translate(72,23)"/>
<path d="M0 0 C5.27315333 0.4452885 10.01770224 1.08373163 15 3 C12.01786685 3.99404438 10.55541462 4.05554146 7.5 3.75 C6.7265625 3.68296875 5.953125 3.6159375 5.15625 3.546875 C2.63215042 2.90670482 1.65141376 1.96899333 0 0 Z " fill="#B46760" transform="translate(114,18)"/>
<path d="M0 0 C0.33 0.66 0.66 1.32 1 2 C1.66 2 2.32 2 3 2 C2.3125 4.375 2.3125 4.375 1 7 C-1.5 8.375 -1.5 8.375 -4 9 C-4.66 8.67 -5.32 8.34 -6 8 C-5.67 7.34 -5.34 6.68 -5 6 C-2.9375 5.375 -2.9375 5.375 -1 5 C-0.67 3.35 -0.34 1.7 0 0 Z " fill="#413F3F" transform="translate(101,175)"/>
<path d="M0 0 C0.66 0 1.32 0 2 0 C2.33 1.32 2.66 2.64 3 4 C0.35261084 5.4606285 -0.89448334 6 -4 6 C-4 5.01 -4 4.02 -4 3 C-2.68 2.67 -1.36 2.34 0 2 C0 1.34 0 0.68 0 0 Z " fill="#353231" transform="translate(138,169)"/>
<path d="M0 0 C0.33 0.66 0.66 1.32 1 2 C-0.125 4.5625 -0.125 4.5625 -2 7 C-4.6875 7.8125 -4.6875 7.8125 -7 8 C-6.21366078 6.85050412 -5.42073742 5.70551011 -4.625 4.5625 C-4.18414062 3.92441406 -3.74328125 3.28632812 -3.2890625 2.62890625 C-2 1 -2 1 0 0 Z " fill="#A03833" transform="translate(41,40)"/>
<path d="M0 0 C0.66 0 1.32 0 2 0 C2 2.64 2 5.28 2 8 C0.68 8.33 -0.64 8.66 -2 9 C-1.34 6.03 -0.68 3.06 0 0 Z " fill="#444141" transform="translate(128,170)"/>
<path d="M0 0 C0.66 0 1.32 0 2 0 C2.33 2.97 2.66 5.94 3 9 C2.01 9 1.02 9 0 9 C-0.87890625 2.84765625 -0.87890625 2.84765625 -1 1 C-0.67 0.67 -0.34 0.34 0 0 Z " fill="#888482" transform="translate(107,158)"/>
<path d="M0 0 C0 3 0 3 -1 6 C-2.32 5.67 -3.64 5.34 -5 5 C-4.67 3.68 -4.34 2.36 -4 1 C-2.68 0.67 -1.36 0.34 0 0 Z " fill="#1C1713" transform="translate(153,146)"/>
<path d="M0 0 C4.455 0.99 4.455 0.99 9 2 C9 2.33 9 2.66 9 3 C6.69 3.66 4.38 4.32 2 5 C2 4.34 2 3.68 2 3 C-0.31 3 -2.62 3 -5 3 C-5 2.67 -5 2.34 -5 2 C-3.35 2 -1.7 2 0 2 C0 1.34 0 0.68 0 0 Z " fill="#1C1815" transform="translate(118,137)"/>
<path d="M0 0 C0.66 0 1.32 0 2 0 C2.04241723 2.33294775 2.04092937 4.66702567 2 7 C1 8 1 8 -2.5625 8.0625 C-3.696875 8.041875 -4.83125 8.02125 -6 8 C-6 7.67 -6 7.34 -6 7 C-4.35 6.67 -2.7 6.34 -1 6 C-0.67 4.02 -0.34 2.04 0 0 Z " fill="#B9B5AE" transform="translate(64,131)"/>
<path d="M0 0 C0.66 0.33 1.32 0.66 2 1 C0 4 0 4 -3 5 C-4.20882096 7.00016466 -4.20882096 7.00016466 -5 9 C-5.99 8.67 -6.98 8.34 -8 8 C-8 7.34 -8 6.68 -8 6 C-6.25 4.4921875 -6.25 4.4921875 -4 2.875 C-3.2575 2.33617187 -2.515 1.79734375 -1.75 1.2421875 C-1.1725 0.83226562 -0.595 0.42234375 0 0 Z " fill="#AD584E" transform="translate(50,32)"/>
<path d="M0 0 C1.32 0.33 2.64 0.66 4 1 C0.535 3.97 0.535 3.97 -3 7 C-3.33 6.01 -3.66 5.02 -4 4 C-2.25 1.9375 -2.25 1.9375 0 0 Z " fill="#534D48" transform="translate(164,162)"/>
<path d="M0 0 C0.99 0.33 1.98 0.66 3 1 C2.67 1.99 2.34 2.98 2 4 C2.66 4 3.32 4 4 4 C4.33 6.31 4.66 8.62 5 11 C0 4.63636364 0 4.63636364 0 0 Z " fill="#52463F" transform="translate(19,134)"/>
<path d="M0 0 C-0.66 1.98 -1.32 3.96 -2 6 C-2.12375 5.071875 -2.12375 5.071875 -2.25 4.125 C-2.81258459 1.81562433 -2.81258459 1.81562433 -5.0625 0.75 C-5.701875 0.5025 -6.34125 0.255 -7 0 C-3.86650268 -1.04449911 -3.01031744 -0.93423645 0 0 Z " fill="#2E2825" transform="translate(80,90)"/>
<path d="M0 0 C0.33 0 0.66 0 1 0 C1.33 2.31 1.66 4.62 2 7 C-0.49092811 8.24546405 -1.41080733 7.7767578 -4 7 C-4 6.34 -4 5.68 -4 5 C-3.01 4.34 -2.02 3.68 -1 3 C-0.67 2.01 -0.34 1.02 0 0 Z " fill="#1E1A17" transform="translate(96,159)"/>
<path d="M0 0 C1.37562854 1.28965176 2.70766393 2.62689293 4 4 C4 4.66 4 5.32 4 6 C0.73045798 5.43628586 -0.82575883 4.50037734 -3 2 C-2.01 2 -1.02 2 0 2 C0 1.34 0 0.68 0 0 Z " fill="#332A29" transform="translate(115,89)"/>
<path d="M0 0 C-4.75 4.875 -4.75 4.875 -7 6 C-7 4.35 -7 2.7 -7 1 C-4.53721199 -0.231394 -2.7204945 -0.07159196 0 0 Z " fill="#A83B36" transform="translate(81,49)"/>
<path d="M0 0 C-2.43840236 2.43840236 -4.85240898 3.62292893 -8 5 C-8.66 4.67 -9.32 4.34 -10 4 C-10 3.34 -10 2.68 -10 2 C-6.49223216 0.39644899 -3.85645121 -0.22036864 0 0 Z " fill="#AF544D" transform="translate(103,36)"/>
<path d="M0 0 C0.33 0.66 0.66 1.32 1 2 C1.66 2 2.32 2 3 2 C3 2.66 3 3.32 3 4 C3.66 4 4.32 4 5 4 C4.67 4.66 4.34 5.32 4 6 C1.69 5.34 -0.62 4.68 -3 4 C-2.01 2.68 -1.02 1.36 0 0 Z " fill="#31302E" transform="translate(85,177)"/>
<path d="M0 0 C0.66 0 1.32 0 2 0 C2 2.31 2 4.62 2 7 C1.01 6.67 0.02 6.34 -1 6 C-1.042721 4.33388095 -1.04063832 2.66617115 -1 1 C-0.67 0.67 -0.34 0.34 0 0 Z " fill="#161311" transform="translate(100,159)"/>
<path d="M0 0 C1.98 0 3.96 0 6 0 C4.7508258 3.45925163 3.32472205 6.14693203 1 9 C1.52268466 6.23723823 2.10869587 3.6739124 3 1 C2.01 0.67 1.02 0.34 0 0 Z " fill="#9A9692" transform="translate(113,158)"/>
<path d="M0 0 C1.32 0.33 2.64 0.66 4 1 C4 2.32 4 3.64 4 5 C2.68 5 1.36 5 0 5 C0 3.35 0 1.7 0 0 Z " fill="#120F0B" transform="translate(120,147)"/>
<path d="M0 0 C0.33 0.99 0.66 1.98 1 3 C-1.70879335 4.35439668 -4.00933268 4.06501451 -7 4 C-3.17391304 0 -3.17391304 0 0 0 Z " fill="#A7A19C" transform="translate(149,98)"/>
<path d="M0 0 C0.33 0.66 0.66 1.32 1 2 C1.99 1.67 2.98 1.34 4 1 C4.66 1.66 5.32 2.32 6 3 C4 4 4 4 1.625 3.5 C-1.03845204 2.9926758 -2.46663295 3.15554432 -5 4 C-3 1 -3 1 0 0 Z " fill="#0B0706" transform="translate(49,99)"/>
<path d="M0 0 C-1.07401108 2.91517292 -1.77810176 4.77810176 -4 7 C-4.33 5.02 -4.66 3.04 -5 1 C-3 0 -3 0 0 0 Z " fill="#A53830" transform="translate(52,80)"/>
<path d="M0 0 C2.97 0.495 2.97 0.495 6 1 C5.67 1.99 5.34 2.98 5 4 C2.03 3.505 2.03 3.505 -1 3 C-0.67 2.01 -0.34 1.02 0 0 Z " fill="#3C3C3B" transform="translate(76,176)"/>
<path d="M0 0 C1.5 1.1875 1.5 1.1875 3 3 C3.1875 5.6875 3.1875 5.6875 3 8 C1.02 6.35 -0.96 4.7 -3 3 C-2.01 2.67 -1.02 2.34 0 2 C0 1.34 0 0.68 0 0 Z " fill="#221E1D" transform="translate(138,143)"/>
<path d="M0 0 C0.33 0.66 0.66 1.32 1 2 C3.64 2 6.28 2 9 2 C9 2.33 9 2.66 9 3 C7.865625 3.12375 6.73125 3.2475 5.5625 3.375 C3.7990625 3.684375 3.7990625 3.684375 2 4 C1.67 4.66 1.34 5.32 1 6 C0.34 6 -0.32 6 -1 6 C-0.67 4.02 -0.34 2.04 0 0 Z " fill="#928C87" transform="translate(103,133)"/>
<path d="M0 0 C3 3.75 3 3.75 3 6 C1.35 6 -0.3 6 -2 6 C-1.34 4.02 -0.68 2.04 0 0 Z " fill="#251E18" transform="translate(108,127)"/>
<path d="M0 0 C1.65 0 3.3 0 5 0 C3.68 0.33 2.36 0.66 1 1 C1 1.66 1 2.32 1 3 C2.65 3 4.3 3 6 3 C5.67 3.66 5.34 4.32 5 5 C2.69 4.67 0.38 4.34 -2 4 C-1.34 2.68 -0.68 1.36 0 0 Z " fill="#4E4543" transform="translate(89,73)"/>
<path d="M0 0 C2.31 1.98 4.62 3.96 7 6 C6.34 6.66 5.68 7.32 5 8 C0 2.25 0 2.25 0 0 Z " fill="#AC4F4A" transform="translate(157,36)"/>
<path d="M0 0 C7.50769231 -0.36923077 7.50769231 -0.36923077 10 1.5 C10.495 2.2425 10.495 2.2425 11 3 C9.741875 2.87625 8.48375 2.7525 7.1875 2.625 C6.12595703 2.52058594 6.12595703 2.52058594 5.04296875 2.4140625 C3 2 3 2 0 0 Z " fill="#B7635D" transform="translate(125,39)"/>
<path d="M0 0 C1.875 0.1875 1.875 0.1875 4 1 C5.3125 3.4375 5.3125 3.4375 6 6 C5.67 6.66 5.34 7.32 5 8 C4.16382818 6.8562364 3.33113541 5.70992861 2.5 4.5625 C2.0359375 3.92441406 1.571875 3.28632813 1.09375 2.62890625 C0 1 0 1 0 0 Z " fill="#554F47" transform="translate(27,151)"/>
<path d="M0 0 C2.475 0.99 2.475 0.99 5 2 C4.67 2.66 4.34 3.32 4 4 C2.02 4 0.04 4 -2 4 C-1.34 2.68 -0.68 1.36 0 0 Z " fill="#1F1914" transform="translate(152,98)"/>
<path d="M0 0 C0 0.99 0 1.98 0 3 C-3 5 -3 5 -5.1875 4.625 C-5.785625 4.41875 -6.38375 4.2125 -7 4 C-4.69 2.68 -2.38 1.36 0 0 Z " fill="#2F2721" transform="translate(150,94)"/>
<path d="" fill="#BFBFAF" transform="translate(0,0)"/>
<path d="" fill="#BBBBAA" transform="translate(0,0)"/>
</svg>
